<?xml version="1.0" standalone="no"?><!DOCTYPE svg PUBLIC "-//W3C//DTD SVG 1.1//EN" "http://www.w3.org/Graphics/SVG/1.1/DTD/svg11.dtd"><svg t="1654585369684" class="icon" viewBox="0 0 1024 1024" version="1.1" xmlns="http://www.w3.org/2000/svg" p-id="5000" xmlns:xlink="http://www.w3.org/1999/xlink" width="200" height="200"><defs><style type="text/css"></style></defs><path d="M512 1024c-81.828571 0-160-6.971429-220.114286-19.771429-31.085714-6.628571-56.228571-14.514286-74.857143-23.657142-41.485714-20.342857-50.285714-47.428571-50.285714-66.628572V466.285714c0-45.485714 18.285714-89.828571 51.542857-125.028571 26.514286-28.114286 61.485714-49.028571 100.114286-60.228572 5.6-6.628571 12.228571-12.228571 19.2-16.914285l3.2-63.771429c-9.828571-10.628571-15.885714-24.914286-15.885714-40.571428V67.657143c0-15.771429 5.828571-30.857143 16.342857-42.514286 10.742857-11.885714 25.485714-19.085714 41.371428-20.342857C404.685714 2.971429 450.971429 0 513.6 0c62.742857 0 108.914286 2.971429 130.857143 4.685714 15.885714 1.257143 30.628571 8.571429 41.371428 20.342857 10.628571 11.657143 16.342857 26.742857 16.342858 42.514286v92.114286c0 17.257143-7.314286 32.8-18.971429 43.657143l3.085714 60.685714c6.971429 4.685714 13.485714 10.285714 19.2 16.914286 38.628571 11.2 73.485714 32.114286 100.114286 60.228571C838.857143 376.457143 857.142857 420.8 857.142857 466.285714v447.657143c0 19.2-8.685714 46.285714-50.285714 66.628572-18.628571 9.142857-43.771429 17.028571-74.857143 23.657142C672 1017.028571 593.828571 1024 512 1024z" fill="#25467A" p-id="5001"></path><path d="M674.514286 322.971429c-2.628571-11.085714-13.485714-21.142857-34.742857-28.8l-9.6-189.6H393.828571l-9.6 189.6c-21.257143 7.657143-32 17.6-34.742857 28.8C272.457143 337.257143 214.857143 397.485714 214.857143 466.285714v447.657143c0 32.8 133.028571 62.057143 297.142857 62.057143s297.142857-29.257143 297.142857-62.057143V466.285714c0-68.8-57.6-129.028571-134.628571-143.314285z" fill="#1565C0" p-id="5002"></path><path d="M665.257143 328.571429c-2.514286-10.628571-12.685714-20.342857-32.685714-27.657143L623.542857 118.857143H400.457143l-9.028572 182.057143c-20 7.314286-30.171429 16.914286-32.685714 27.657143-72.571429 13.714286-126.971429 73.257143-126.971428 139.314285v428c0 31.542857 125.485714 59.657143 280.228571 59.657143s280.228571-28.114286 280.228571-59.657143V467.885714c0-66.057143-54.4-125.6-126.971428-139.314285z" fill="#FFFFFF" p-id="5003"></path><path d="M661.371429 332.342857c-2.4-10.628571-17.371429-20.114286-36.914286-27.428571l-3.885714-78.742857H403.314286l-3.885715 78.742857c-19.542857 7.314286-34.4 16.8-36.914285 27.428571C291.885714 345.942857 238.857143 400.685714 238.857143 466.171429v425.142857c0 31.314286 122.285714 15.657143 273.142857 15.657143s273.142857 15.657143 273.142857-15.657143v-425.142857c0-65.485714-53.028571-120.228571-123.771428-133.828572z" fill="#EAF8FE" p-id="5004"></path><path d="M656.342857 930.4c0 11.085714-64.571429 20.114286-144.342857 20.114286s-144.342857-9.028571-144.342857-20.114286c0-11.085714 64.571429-16.114286 144.342857-16.114286s144.342857 4.914286 144.342857 16.114286z" fill="#25467A" p-id="5005"></path><path d="M774.285714 889.6c0 12.914286-117.371429-4.914286-262.285714-4.914286s-262.285714 17.828571-262.285714 4.914286 117.371429-36.342857 262.285714-36.342857 262.285714 23.428571 262.285714 36.342857z" fill="#C2EAFD" p-id="5006"></path><path d="M640.114286 326.857143c0 2.285714-57.371429 12.114286-128.114286 12.114286S383.885714 329.142857 383.885714 326.857143s57.371429 3.771429 128.114286 3.771428 128.114286-6.057143 128.114286-3.771428z" fill="#25467A" p-id="5007"></path><path d="M620.685714 224.685714c0 2.857143-48.685714 5.714286-108.685714 5.714286s-108.685714-2.857143-108.685714-5.714286 48.685714-4.457143 108.685714-4.457143 108.685714 1.6 108.685714 4.457143z" fill="#B3E5FC" p-id="5008"></path><path d="M632.228571 171.314286c0-4.8-53.828571-6.742857-120.228571-6.742857s-120.228571 1.942857-120.228571 6.742857 53.828571 10.742857 120.228571 10.742857 120.228571-5.942857 120.228571-10.742857z" fill="#25467A" p-id="5009"></path><path d="M640.571429 52.571429c-21.142857-1.714286-65.942857-4.571429-126.971429-4.571429s-105.828571 2.857143-126.971429 4.571429c-7.771429 0.571429-13.714286 7.2-13.714285 15.085714v92.114286c0 6.742857 5.6 11.542857 12.342857 11.542857 21.485714 0.228571 69.485714-1.371429 128.342857-1.371429s106.857143 1.485714 128.342857 1.371429c6.628571 0 12.342857-4.8 12.342857-11.542857V67.657143c0-7.885714-5.942857-14.4-13.714285-15.085714z" fill="#D1D1D1" p-id="5010"></path><path d="M654.285714 67.657143v92.114286c0 6.742857-5.6 11.542857-12.342857 11.542857h-9.714286c3.885714-1.942857 6.514286-5.714286 6.514286-10.514286V66.742857c0-7.542857-5.257143-13.942857-12.342857-15.2 5.485714 0.342857 10.285714 0.685714 14.171429 1.028572 7.771429 0.685714 13.714286 7.2 13.714285 15.085714z" fill="#616161" p-id="5011"></path><path d="M372.914286 67.657143v92.114286c0 6.742857 5.6 11.542857 12.342857 11.542857h9.714286c-3.885714-1.942857-6.514286-5.714286-6.514286-10.514286V66.742857c0-7.542857 5.257143-13.942857 12.342857-15.2-5.485714 0.342857-10.285714 0.685714-14.171429 1.028572-7.771429 0.685714-13.714286 7.2-13.714285 15.085714z" fill="#F5F5F5" p-id="5012"></path><path d="M443.2 49.371429v121.257142c-11.085714 0.114286-21.028571 0.342857-29.828571 0.457143V50.742857c8.685714-0.457143 18.742857-1.028571 29.828571-1.371428z" fill="#FFFFFF" p-id="5013"></path><path d="M606.628571 50.4v120.571429c-17.6-0.228571-39.085714-0.685714-63.428571-0.914286V48.228571c24.914286 0.342857 46.285714 1.257143 63.428571 2.171429z" fill="#757575" p-id="5014"></path><path d="M300.228571 428.8h24.685715l17.257143 59.085714 17.028571-59.085714h24L354.742857 510.857143H329.142857l-28.914286-82.057143zM384.228571 469.828571c0-13.371429 3.428571-23.885714 10.4-31.314285s16.685714-11.2 29.028572-11.2c12.685714 0 22.514286 3.657143 29.371428 10.971428 6.857143 7.314286 10.285714 17.6 10.285715 30.857143 0 9.6-1.485714 17.485714-4.457143 23.657143-2.971429 6.171429-7.314286 10.971429-13.028572 14.285714-5.714286 3.428571-12.8 5.142857-21.257142 5.142857-8.571429 0-15.771429-1.485714-21.371429-4.457142-5.6-2.971429-10.285714-7.657143-13.714286-14.057143-3.542857-6.285714-5.257143-14.285714-5.257143-23.885715z m23.657143 0.114286c0 8.342857 1.485714 14.285714 4.342857 17.828572 2.857143 3.657143 6.742857 5.485714 11.657143 5.485714 5.028571 0 9.028571-1.828571 11.771429-5.371429 2.742857-3.542857 4.114286-9.942857 4.114286-19.085714 0-7.771429-1.485714-13.371429-4.342858-16.914286-2.857143-3.542857-6.857143-5.371429-11.771428-5.371428-4.8 0-8.571429 1.828571-11.428572 5.485714-2.971429 3.657143-4.342857 9.6-4.342857 17.942857zM476.457143 428.8h35.085714c6.971429 0 12.457143 1.028571 16.8 2.971429 4.228571 2.057143 7.771429 4.914286 10.514286 8.685714 2.742857 3.771429 4.8 8.114286 6.057143 13.142857 1.257143 5.028571 1.828571 10.285714 1.828571 15.885714 0 8.8-0.914286 15.542857-2.742857 20.457143-1.828571 4.8-4.457143 8.914286-7.771429 12.114286-3.314286 3.314286-6.857143 5.485714-10.628571 6.514286-5.142857 1.485714-9.828571 2.285714-14.057143 2.285714h-35.085714v-82.057143z m23.657143 18.514286v44.914285h5.828571c4.914286 0 8.457143-0.571429 10.514286-1.714285 2.057143-1.142857 3.771429-3.2 4.914286-6.171429 1.142857-2.971429 1.828571-7.657143 1.828571-14.285714 0-8.685714-1.371429-14.628571-4-17.828572-2.628571-3.2-6.971429-4.8-13.142857-4.8h-5.942857zM559.314286 428.8h23.657143v30.971429l24.8-30.971429h31.428571l-27.885714 30.971429 29.142857 51.085714h-29.142857l-16.114286-33.714286-12.228571 13.714286V510.857143h-23.657143v-82.057143zM695.2 497.257143h-26.857143l-3.771428 13.6h-24.114286l28.685714-82.057143H694.857143l28.685714 82.057143h-24.685714l-3.657143-13.6z m-4.914286-17.714286l-8.457143-29.485714-8.342857 29.485714H690.285714z" fill="#1565C0" p-id="5015"></path><path d="M512 796.228571c-35.314286 0-64-28.685714-64-64 0-7.085714 5.714286-12.8 12.8-12.8s12.8 5.714286 12.8 12.8c0 21.257143 17.142857 38.4 38.4 38.4s38.4-17.142857 38.4-38.4c0-7.085714 5.714286-12.8 12.8-12.8s12.8 5.714286 12.8 12.8c0 35.314286-28.685714 64-64 64zM345.6 629.828571c0 21.257143 17.142857 38.4 38.4 38.4s38.4-17.142857 38.4-38.4-17.142857-38.4-38.4-38.4c-21.142857 0-38.4 17.142857-38.4 38.4zM601.6 629.828571c0 21.257143 17.142857 38.4 38.4 38.4s38.4-17.142857 38.4-38.4-17.142857-38.4-38.4-38.4c-21.142857 0-38.4 17.142857-38.4 38.4z" fill="#25467A" p-id="5016"></path><path d="M332.8 693.828571h-51.2c-14.171429 0-25.6 11.428571-25.6 25.6s11.428571 25.6 25.6 25.6h51.2c14.171429 0 25.6-11.428571 25.6-25.6s-11.428571-25.6-25.6-25.6z m409.6 0h-51.2c-14.171429 0-25.6 11.428571-25.6 25.6s11.428571 25.6 25.6 25.6h51.2c14.171429 0 25.6-11.428571 25.6-25.6s-11.428571-25.6-25.6-25.6z" fill="#81D4FA" p-id="5017"></path></svg>