<?xml version="1.0" standalone="no"?><!DOCTYPE svg PUBLIC "-//W3C//DTD SVG 1.1//EN" "http://www.w3.org/Graphics/SVG/1.1/DTD/svg11.dtd"><svg t="1654585220153" class="icon" viewBox="0 0 1024 1024" version="1.1" xmlns="http://www.w3.org/2000/svg" p-id="4303" xmlns:xlink="http://www.w3.org/1999/xlink" width="200" height="200"><defs><style type="text/css"></style></defs><path d="M512 1023.771429c-69.257143 0-135.085714-9.942857-195.428571-29.6-62.285714-20.342857-117.371429-50.4-163.657143-89.485715C52.914286 820 0 699.2 0 555.2c0-14.971429 0.571429-30.171429 1.714286-45.142857 2.057143-25.828571 13.371429-49.828571 31.085714-67.428572 1.6-28.228571 6.057143-55.085714 13.371429-80.342857-5.142857-13.485714-5.485714-28.8-0.342858-43.2 16.342857-45.828571 40.114286-88.8 70.514286-128 30.057143-38.628571 65.828571-72.571429 106.514286-100.914285C307.542857 31.428571 407.542857 0.228571 512 0.228571S716.457143 31.428571 801.028571 90.285714c40.685714 28.342857 76.571429 62.285714 106.514286 100.914286 30.4 39.2 54.171429 82.171429 70.514286 128 5.142857 14.4 4.685714 29.714286-0.342857 43.2 7.314286 25.257143 11.771429 52.114286 13.371428 80.228571 17.714286 17.6 29.028571 41.485714 31.085715 67.428572 1.142857 14.971429 1.714286 30.057143 1.714285 45.142857 0 144-52.914286 264.8-152.914285 349.371429-46.285714 39.085714-101.257143 69.257143-163.657143 89.485714-60.228571 19.657143-126.057143 29.714286-195.314286 29.714286z" fill="#25467A" p-id="4304"></path><path d="M974.4 513.828571c-2.628571-34.171429-32.914286-58.057143-64.457143-51.2-112.8 24.457143-263.2 36.914286-397.942857 36.914286s-285.142857-12.457143-397.942857-36.914286c-31.542857-6.857143-61.714286 17.028571-64.457143 51.2-1.028571 13.714286-1.6 27.428571-1.6 41.371429 0 273.257143 207.771429 420.457143 464 420.457143s464-147.314286 464-420.457143c0-13.942857-0.571429-27.771429-1.6-41.371429z" fill="#FFB74D" p-id="4305"></path><path d="M125.371429 606.057143c16 9.6 19.771429 30.857143 22.742857 47.771428 2.514286 14.4 6.628571 37.828571-4.342857 45.714286l-1.714286 1.028572c-6.971429 2.971429-17.028571 4.457143-50.857143-11.771429-11.314286-5.371429-17.028571-8.114286-19.428571-10.971429-5.828571-6.857143-5.371429-12.457143-8.571429-39.2-3.085714-25.028571-5.257143-33.6 0-37.714285 3.2-2.514286 7.2-1.942857 12-1.371429 44.914286 5.828571 43.771429 2.628571 50.171429 6.514286zM128.8 521.142857c6.857143 3.885714 5.6 18.628571 4.342857 33.714286-1.6 18.285714-2.4 27.428571-8.571428 31.542857-7.885714 5.257143-14.628571-3.542857-46.4-8.571429-10.628571-1.714286-13.6-1.257143-17.028572-4.571428-2.742857-2.628571-6.171429-7.771429-3.542857-39.885714 2.285714-28 5.257143-29.485714 6.4-29.714286 4.342857-0.8 6.4 10.857143 19.542857 19.085714 2.742857 1.714286 9.6 6.514286 18.4 5.942857 12.457143-0.685714 20-11.428571 26.857143-7.542857zM322.4 628.8c2.4 11.428571-38.628571 16.571429-48.571429 49.142857-7.885714 25.714286 9.371429 49.485714-0.685714 56.8-4.114286 2.971429-8.114286-0.342857-33.942857-6.742857-20.685714-5.028571-21.142857-3.542857-33.714286-7.428571-21.485714-6.628571-32.914286-10.171429-37.942857-20-6.171429-11.885714 4.457143-18.742857 3.2-41.371429-1.371429-25.6-16.114286-36.342857-10.742857-44.571429 5.485714-8.685714 25.485714-3.542857 46.628571 0.228572 72.457143 12.914286 113.371429 2.4 115.771429 13.942857zM226.628571 752.8c15.885714 14.4 20.8 33.028571 25.6 51.314286 2.4 9.371429 12.114286 47.542857-0.685714 56.8-4.114286 2.971429-8.114286-0.342857-33.942857-6.742857-25.942857-6.285714-24.342857-3.771429-33.714286-7.428572-30.742857-12.114286-45.828571-44.228571-48.685714-50.4-8.685714-18.514286-3.885714-21.714286-12.914286-38.057143-14.857143-26.742857-36.571429-33.942857-34.4-39.2 2.057143-4.8 21.142857 0.571429 76.342857 13.028572 43.428571 9.828571 51.771429 11.085714 62.4 20.685714zM283.885714 484.342857c11.314286 12.685714 10.971429 42.971429-4.228571 57.485714-19.542857 18.742857-54.742857 2.171429-64.8 19.657143-5.828571 10.285714 4.114286 19.771429-2.171429 28.228572-9.942857 13.485714-50.514286 9.942857-62.057143-9.828572-7.314286-12.457143 3.428571-20.228571 5.142858-63.542857 0.685714-17.6-0.914286-22.285714 3.542857-27.428571 8.914286-10.514286 25.257143-2.857143 58.171428-2.514286 42.514286 0.342857 57.257143-12.114286 66.4-2.057143z" fill="#FFD699" p-id="4306"></path><path d="M457.942857 579.885714c13.142857 14.285714-43.542857 55.428571-32 112.8 4.457143 21.828571 16.914286 37.142857 8.342857 50.628572-7.885714 12.457143-23.085714 6.171429-40 21.714285-15.2 14.057143-9.371429 24.914286-24 36.571429-13.714286 10.857143-30.628571 10.628571-46.857143 10.285714-10.628571-0.228571-46.4-0.8-51.428571-16-4-12.228571 17.257143-18.514286 25.142857-44.571428 10.057143-33.257143-15.2-53.828571-1.714286-70.742857 9.371429-11.771429 31.771429-14.857143 46.4-29.028572 9.714286-9.371429 12.571429-17.028571 17.6-24.914286 24.571429-38.971429 86.057143-60.228571 98.514286-46.742857zM390.857143 826.742857c10.171429 7.771429 9.371429 23.885714 8.228571 48.571429-1.028571 20.685714-2.742857 58.057143-21.942857 65.714285-8.342857 3.314286-9.028571-3.428571-44.114286-10.171428-11.771429-2.285714-21.6-4.342857-38.514285-8.228572-4-0.914286-8.571429-2.285714-14.057143-4.571428-7.885714-3.2-35.771429-14.514286-35.542857-28.228572 0.228571-8.8 11.657143-10.171429 23.542857-26.4 0.114286-0.114286 0.228571-0.342857 0.457143-0.685714 11.314286-16.114286 8.457143-26.857143 13.6-32.685714 6.171429-6.971429 18.4-0.685714 38.628571 1.257143 40.457143 3.885714 55.885714-15.2 69.714286-4.571429zM487.657143 938.857143c4.228571 7.657143 9.485714 21.714286 4.342857 26.628571-3.428571 3.314286-10.057143 0.914286-16.914286-0.914285-39.428571-11.085714-60.914286-2.628571-65.714285-14.514286-0.685714-1.828571 0.114286-6.857143 1.942857-16.914286 2.742857-15.2 4-22.857143 6.285714-25.142857 11.314286-11.542857 54.171429 2.171429 70.057143 30.857143z" fill="#FFD699" p-id="4307"></path><path d="M542.857143 783.2c24.228571 14.742857 9.714286 58.4 34.4 73.942857 13.828571 8.685714 23.085714-2.171429 36.571428 6.514286 25.142857 16.114286 27.542857 75.428571 4.342858 91.314286-8.114286 5.6-13.6-2.628571-40.914286 0-5.257143 0.457143-14.171429 2.057143-32.114286 5.142857-26.171429 4.571429-28.342857 5.371429-30.971428 3.428571-12-9.371429 12-45.028571-1.942858-59.428571-4.914286-5.142857-10.285714-2.971429-32.914285-4.8-31.428571-2.628571-47.085714-4-54.857143-12.685715-13.6-15.2-1.257143-29.6-4.342857-65.257142-2.628571-30.857143-9.942857-36.342857-4.342857-43.542858 10.971429-14.057143 40.114286 1.371429 95.771428 3.314286 23.085714 0.685714 24.914286-1.828571 31.314286 2.057143z" fill="#FFD699" p-id="4308"></path><path d="M728.914286 787.542857c14.285714 15.542857-12.8 50.057143 0 66.285714 13.485714 17.142857 55.885714-5.371429 62.4 6.514286 6.171429 11.314286-27.085714 41.485714-52.685715 57.6-25.828571 16.228571-40 15.885714-46.285714 15.2-4.342857-0.457143-18.171429-2.514286-30.171428-13.028571-16.228571-14.285714-9.714286-27.085714-23.657143-48.914286-15.885714-25.028571-34.971429-22.4-40.914286-43.542857-0.457143-1.485714-5.257143-19.771429 4.342857-33.714286 4-5.828571 11.657143-12.571429 101.142857-12 14.514286 0.342857 21.142857 0.571429 25.828572 5.6zM426.742857 490.742857c12.914286 13.942857 13.714286 42.171429 1.142857 54.857143-14.971429 15.314286-39.314286-1.828571-58.171428 14.742857-13.942857 12.342857-5.942857 26.285714-20.457143 39.2-16.342857 14.514286-41.6 10.285714-58.057143 7.657143-23.085714-3.771429-55.657143-15.771429-54.857143-27.2 0.914286-13.6 47.885714-7.428571 64.914286-37.485714 11.657143-20.571429-2.057143-37.942857 11.428571-51.657143 3.314286-3.428571 8.914286-7.2 52.571429-7.657143 35.885714-0.571429 53.942857-0.571429 61.485714 7.542857zM573.028571 662.514286c-43.542857 20.8-103.085714-11.542857-106.514285-39.2-1.485714-12.685714 9.714286-16 10.742857-35.885715 0.8-15.085714-5.485714-19.885714-17.257143-52.228571-6.057143-16.457143-16.914286-46.971429-9.028571-52.342857 1.6-1.028571 2.628571-0.342857 14.514285 0.114286 4.914286 0.114286 9.828571 0.114286 14.742857 0.114285 36.914286 0.457143 73.942857-9.257143 89.371429 6.4 12.571429 12.685714-3.657143 27.2 6.628571 59.428572 10.742857 33.6 34.285714 36.457143 35.314286 60.228571 1.142857 22.857143-19.542857 44.342857-38.514286 53.371429z" fill="#FFD699" p-id="4309"></path><path d="M590.171429 690.857143c9.028571 4.685714 23.2 12.457143 28 28.228571 3.542857 11.657143 1.6 27.314286-7.542858 37.028572-11.542857 12.114286-33.028571 9.485714-76 4.114285-3.314286-0.457143-21.142857-2.742857-43.428571-9.6-13.485714-4.114286-20.457143-6.285714-25.828571-10.857142-14.4-12.114286-16.342857-31.085714-17.828572-45.828572-1.371429-13.028571-3.2-30.971429 4.914286-35.657143 7.771429-4.457143 17.028571 7.428571 35.542857 16.342857 40.114286 19.2 62.742857-4.571429 102.171429 16.228572zM730.057143 611.428571c-16 0.914286-18.171429-9.142857-40.914286-12-30.628571-3.771429-39.885714 13.028571-57.028571 5.485715-13.828571-6.057143-19.314286-23.657143-30.171429-58.742857-8.342857-27.085714-12.571429-40.571429-6.4-48.914286 6.171429-8.457143 16.114286-5.828571 65.6-6.171429 43.314286-0.228571 51.314286-2.285714 60.228572 5.485715 13.828571 12.228571 6.4 27.771429 21.6 40.914285 16.685714 14.285714 35.428571 4.114286 40.914285 14.171429 7.885714 14.742857-21.6 57.942857-53.828571 59.771428zM735.428571 641.828571c7.314286 12.228571-5.257143 21.257143-4.685714 53.485715 0.571429 28.8 10.971429 35.2 4.685714 46.628571-10.171429 18.285714-45.028571 16.914286-67.085714 16-14.628571-0.571429-22.057143-0.914286-27.657143-6.285714-11.428571-10.971429-1.028571-26.628571-7.542857-56.571429-6.171429-28.457143-20-34.742857-15.085714-46.742857 5.942857-14.4 30.4-16.571429 51.657143-18.514286 22.4-1.942857 55.428571-4.914286 65.714285 12z" fill="#FFD699" p-id="4310"></path><path d="M879.542857 615.885714c-21.6 37.142857-62.057143 44-65.6 44.571429-8.457143 1.257143-40.685714 6.171429-49.485714-8.685714-14.628571-24.8 52.114286-76.914286 36.571428-105.485715-9.6-17.714286-42.171429-10.4-47.314285-28.228571-3.314286-11.428571 6.057143-27.542857 17.257143-30.4 12.228571-3.2 18.628571 11.657143 39.657142 19.885714 29.371429 11.428571 44.228571-6.971429 61.485715 2.971429 23.657143 13.485714 29.142857 67.885714 7.428571 105.371428z" fill="#FFD699" p-id="4311"></path><path d="M889.257143 645.142857c18.628571-6.514286 50.628571-11.085714 61.257143 4.342857 6.057143 8.914286 1.6 21.485714-7.542857 46.742857-7.314286 20.228571-14.514286 39.542857-33.257143 52.8-12 8.571429-13.485714 3.771429-24 11.428572-25.257143 18.514286-17.028571 46.285714-40 61.714286-4.114286 2.742857-12.685714 4.457143-29.714286 8-37.828571 7.771429-56.8 11.657143-64 6.857142-23.085714-15.314286 10.171429-65.828571 0.457143-142.514285-0.8-6.628571-2.057143-16.342857 3.428571-22.171429 13.142857-13.942857 45.142857 18.285714 80.685715 7.657143 24.114286-7.314286 22.057143-24.114286 52.685714-34.857143zM951.657143 613.257143c-3.2 4.342857-7.2 8.342857-12.914286 10.857143-10.514286 4.571429-25.714286 3.657143-31.885714-4-10.171429-12.571429 13.942857-31.771429 11.885714-63.085715-2.628571-37.828571-40.342857-52.457143-33.371428-68.457142 6.514286-14.971429 46.742857-19.085714 60.228571-3.314286 8.342857 9.714286 11.771429 21.142857 15.657143 46.971428 2.971429 21.371429 7.885714 57.257143-9.6 81.028572z" fill="#FFD699" p-id="4312"></path><path d="M949.6 478.514286c-37.371429-22.971429-202.514286-35.542857-437.6-35.542857S111.771429 455.428571 74.4 478.514286C37.028571 501.6 90.171429 712.571429 512 712.571429s474.971429-210.971429 437.6-234.057143z" fill="#E89823" p-id="4313"></path><path d="M943.885714 467.085714C943.885714 575.2 785.142857 685.714286 512 685.714286S80.114286 575.2 80.114286 467.085714 123.885714 157.942857 512 157.942857s431.885714 201.028571 431.885714 309.142857z" fill="#FFFBF5" p-id="4314"></path><path d="M943.885714 467.085714c0 67.885714-62.514286 136.571429-176.571428 178.4 58.4-45.6 89.6-102.171429 89.6-158.285714 0-91.314286-22.857143-239.428571-181.6-314.628571 237.828571 48.342857 268.571429 204 268.571428 294.514285z" fill="#FFF0D9" p-id="4315"></path><path d="M933.028571 335.428571c2.514286 6.857143-0.457143 14.4-7.085714 18.171429-102.971429 58.171429-250.285714 78.514286-413.942857 78.514286s-310.971429-20.342857-413.942857-78.514286c-6.628571-3.771429-9.6-11.314286-7.085714-18.171429C150.171429 169.828571 316.342857 48.228571 512 48.228571s361.714286 121.6 421.028571 287.2z" fill="#FFB74D" p-id="4316"></path><path d="M170.857143 278.628571c4.685714 3.657143-0.114286 12.457143-8.8 44.457143-7.542857 27.771429-7.2 33.6-13.714286 36.685715-11.885714 5.714286-35.885714-3.314286-42.171428-21.485715-4.571429-13.257143 1.142857-28.685714 14.628571-37.942857 3.657143-4.228571 9.485714-9.942857 18.057143-14.628571 1.828571-1.257143 24-13.257143 32-7.085715zM307.085714 257.371429c5.942857 9.028571-38.514286 29.142857-41.142857 66.971428-1.485714 21.942857 13.371429 32.228571 5.257143 45.714286-9.6 15.885714-38.285714 15.771429-45.257143 15.771428-5.828571 0-40.571429-0.8-50.171428-19.657142-5.028571-10.057143 2.057143-15.085714 8-45.942858 5.942857-30.971429 0.914286-37.828571 9.371428-46.057142 9.371429-9.142857 19.085714-4.342857 54.514286-9.142858 39.657143-5.371429 55.771429-13.257143 59.428571-7.657142zM259.657143 185.142857c9.257143 6.628571 21.942857-5.028571 34.4-1.028571 17.257143 5.6 27.885714 39.428571 15.885714 53.142857-8.457143 9.6-21.485714 1.942857-58.4 7.314286-23.885714 3.428571-44.457143 6.742857-53.714286 8.8-38.628571 8.228571-50.628571 15.428571-54.742857 10.628571-5.828571-6.971429 10.971429-31.314286 30.171429-46.742857 13.714286-11.085714 17.142857-8.228571 26.057143-17.485714 18.971429-19.885714 11.885714-41.828571 24.228571-45.485715 9.028571-2.628571 21.828571 6.057143 27.771429 14.285715 5.714286 8.114286 3.2 12.8 8.342857 16.571428zM336.228571 82.857143c-0.685714 2.971429-1.6 7.428571-2.514285 12.914286-1.257143 7.085714-2.285714 12.228571-2.514286 12.914285-5.371429 28.114286-9.485714 49.942857-24.685714 57.142857-13.371429 6.285714-36.342857 1.485714-45.828572-13.6-7.428571-12-3.085714-25.142857-2.171428-28 24.342857-16.228571 50.285714-30.057143 77.714285-41.371428z" fill="#FFD699" p-id="4317"></path><path d="M444 257.257143c6.857143 7.771429-4.114286 17.485714-7.314286 47.542857-0.914286 9.142857-1.142857 16.342857-1.028571 22.057143 0.342857 12.114286 0.685714 19.314286 1.028571 26.171428 0.914286 16.8 1.828571 34.285714-2.514285 43.542858-16.228571 34.857143-138.171429 20.571429-142.857143-5.828572-1.485714-8.8 10.857143-13.942857 10.971428-31.314286 0.114286-15.428571-11.657143-19.2-10.4-32.114285 2.285714-23.428571 22.514286-26.742857 34.057143-50.628572 17.6-36.342857-9.371429-70.171429 5.6-78.857143 8.8-5.142857 26.857143 1.6 34.4 12.685715 10.742857 15.771429-6.742857 33.371429 2.057143 43.771428 13.257143 15.657143 62.628571-12.114286 76 2.971429z" fill="#FFD699" p-id="4318"></path><path d="M446.285714 115.542857c9.028571 7.085714-1.142857 22.4-3.314285 56.685714-2.285714 35.314286 6.971429 45.6-2.971429 56.571429-13.6 14.971429-47.885714 14.171429-55.771429 2.4-6.742857-10.057143 9.371429-22.971429 2.4-34.285714-8.114286-13.257143-34.285714-2.742857-46.857142-16.457143-11.885714-12.914286-6.971429-42.514286 9.6-54.857143 12.228571-9.142857 20.685714-1.371429 63.771428-7.771429 21.714286-3.2 27.885714-6.4 33.142857-2.285714zM561.371429 97.371429c-0.457143 8.914286-1.257143 26.742857-10.171429 30.4-8.342857 3.428571-14.628571-9.371429-37.485714-18.514286-24.228571-9.6-40-4.114286-45.142857-14.171429-1.942857-3.771429-0.342857-5.942857 1.485714-22.514285 1.028571-9.6 1.371429-17.485714 1.6-22.514286 13.257143-1.142857 26.742857-1.714286 40.342857-1.714286 15.657143 0 31.085714 0.8 46.285714 2.285714 0.342857 5.371429 0.8 13.485714 1.6 23.428572 1.257143 14.971429 1.828571 17.485714 1.485715 23.314286zM568.914286 230.628571c-7.428571 6.057143-14.057143-1.257143-56.8-2.285714-17.828571-0.342857-26.742857-0.571429-32.571429-0.228571-13.028571 0.8-15.428571 2.057143-18.4 0.114285-9.028571-5.828571 1.028571-24.342857 2.971429-56.685714 2.057143-33.6-6.628571-50.971429 3.314285-56.8 3.885714-2.285714 9.028571-1.828571 25.485715 4.228572 14.4 5.371429 34.4 13.828571 57.257143 27.2 4.8 6.171429 10.971429 15.542857 15.885714 27.657142 2.628571 6.971429 17.714286 44.8 2.857143 56.8zM555.428571 314.628571c-9.485714 7.542857-12.114286 12.114286-20.342857 13.828572-8.685714 1.714286-14.514286-1.485714-21.714285-3.657143-30.285714-8.8-54.171429 11.657143-60.914286 2.857143-3.085714-4.114286 2.057143-8.8 5.371428-23.2 6.971429-30.057143-7.657143-49.142857 2.4-56.685714 7.2-5.371429 18.171429-2.057143 26.857143-0.228572 65.371429 14.4 116.8-25.714286 130.857143-8 8.571429 10.857143-5.142857 32.571429-7.314286 36-12.457143 19.542857-32.228571 20.685714-55.2 39.085714zM702.857143 228c-3.657143 10.628571-32.8 11.314286-49.257143 9.028571-6.4-0.914286-31.2-4.914286-50.628571-24.685714-26.971429-27.314286-24.228571-64.685714-23.542858-73.371428 1.028571-14.514286 4.571429-17.257143 4.114286-33.142858-0.8-27.085714-11.657143-37.142857-6.285714-42.857142 9.257143-9.6 50.742857 9.028571 79.085714 32.457142 12.8 10.514286 33.371429 27.428571 29.142857 42.171429-4.342857 15.2-30.971429 13.142857-34.742857 26.628571-5.942857 21.828571 57.942857 46.971429 52.114286 63.771429zM716.228571 388.8c-8 11.314286-22.742857 12.114286-59.314285 15.542857-104.914286 9.714286-115.314286 14.514286-121.828572 5.828572-15.657143-20.914286 17.828571-83.771429 58.285715-102.057143 8.457143-3.771429 21.828571-8 33.828571-20.8 13.485714-14.4 10.514286-24.457143 21.371429-29.828572 13.828571-6.971429 36.457143 0.457143 48.342857 13.257143 8.8 9.485714 7.885714 17.257143 12.342857 48.342857 7.542857 51.085714 14.514286 59.085714 6.971428 69.714286zM508.228571 408.914286c-12.457143 9.6-28 7.542857-40.571428 5.828571-6.742857-0.914286-10.285714-1.485714-13.028572-4.342857-5.485714-5.6-2.742857-14.171429 1.485715-39.885714 4.114286-24.685714 3.2-26.742857 6.514285-29.714286 11.542857-10.4 44.685714-5.371429 56.571429 17.371429 8.8 17.257143 3.085714 39.885714-10.971429 50.742857zM792.457143 143.657143c-10.857143-6.285714-27.771429-13.714286-48-12.342857-20.914286 1.485714-35.428571 12-42.285714 5.828571-4.342857-3.885714-0.8-10.171429-2.057143-25.942857-0.914286-10.857143-3.657143-19.657143-5.942857-25.6 35.542857 15.314286 68.571429 34.857143 98.285714 58.057143z" fill="#FFD699" p-id="4319"></path><path d="M836.685714 273.714286c-5.828571 6.171429-17.142857 0.342857-54.628571-6.171429-43.314286-7.542857-59.771429-5.371429-64.571429-15.542857-4.914286-10.514286 10.057143-17.6 8.342857-33.142857-3.085714-27.885714-54.971429-35.2-53.485714-50.628572 1.371429-13.371429 42.171429-22.742857 74.971429-20.8 15.542857 0.914286 47.2 2.857143 63.771428 23.428572 9.142857 11.314286 4.228571 16.457143 13.6 51.428571 9.257143 34.857143 18.171429 45.028571 12 51.428572zM849.485714 373.257143c-37.257143 12.571429-55.885714 18.742857-73.942857 15.542857-4.342857-0.8-32.8-6.285714-43.2-26.514286-6.4-12.457143 0.685714-18.057143-1.6-40.228571-3.542857-32.685714-20.342857-47.2-13.942857-53.142857 8-7.542857 37.371429 5.485714 68.685714 19.428571 36.8 16.457143 36.914286 21.485714 53.485715 24 33.828571 5.142857 53.828571-14.285714 66.285714-3.542857 8.228571 7.085714 7.2 22.171429 2.628571 31.314286-4.457143 8.8-13.6 13.371429-31.771428 22.171428-13.257143 6.4-24 10.057143-26.628572 10.971429z" fill="#FFD699" p-id="4320"></path><path d="M917.371429 297.828571c-6.285714-3.885714-15.771429-8.571429-27.542858-8.8-18.742857-0.457143-29.714286 10.171429-36.342857 5.828572-6.742857-4.457143-1.942857-19.771429 0-29.828572 3.542857-18.057143 2.857143-45.142857-17.714285-83.085714 33.6 33.942857 61.257143 73.028571 81.6 115.885714zM450.514286 52.342857c-0.571429 5.028571-1.257143 12.571429-1.485715 21.828572-0.342857 15.885714 1.028571 18.4-1.485714 21.714285-6.057143 8.114286-20.457143 1.028571-48.228571 3.542857-26.057143 2.285714-42.4 11.2-46.171429 5.714286-1.371429-1.942857 0.228571-4 2.971429-15.542857 1.6-6.514286 2.514286-11.885714 3.085714-15.542857 29.257143-10.171429 59.771429-17.6 91.314286-21.714286z" fill="#FFD699" p-id="4321"></path><path d="M512 662.285714c-35.314286 0-64-28.685714-64-64 0-7.085714 5.714286-12.8 12.8-12.8s12.8 5.714286 12.8 12.8c0 21.257143 17.142857 38.4 38.4 38.4s38.4-17.142857 38.4-38.4c0-7.085714 5.714286-12.8 12.8-12.8s12.8 5.714286 12.8 12.8c0 35.314286-28.571429 64-64 64zM345.6 495.885714c0 21.257143 17.142857 38.4 38.4 38.4s38.4-17.142857 38.4-38.4-17.142857-38.4-38.4-38.4c-21.142857 0-38.285714 17.142857-38.4 38.4zM601.6 495.885714c0 21.257143 17.142857 38.4 38.4 38.4s38.4-17.142857 38.4-38.4-17.142857-38.4-38.4-38.4-38.285714 17.142857-38.4 38.4z" fill="#25467A" p-id="4322"></path><path d="M332.8 559.885714h-51.2c-14.171429 0-25.6 11.428571-25.6 25.6s11.428571 25.6 25.6 25.6h51.2c14.171429 0 25.6-11.428571 25.6-25.6 0-14.171429-11.428571-25.6-25.6-25.6z m409.6 0h-51.2c-14.171429 0-25.6 11.428571-25.6 25.6s11.428571 25.6 25.6 25.6h51.2c14.171429 0 25.6-11.428571 25.6-25.6 0-14.171429-11.428571-25.6-25.6-25.6z" fill="#FBC02D" p-id="4323"></path></svg>