<?xml version="1.0" standalone="no"?><!DOCTYPE svg PUBLIC "-//W3C//DTD SVG 1.1//EN" "http://www.w3.org/Graphics/SVG/1.1/DTD/svg11.dtd"><svg t="1654585381815" class="icon" viewBox="0 0 1024 1024" version="1.1" xmlns="http://www.w3.org/2000/svg" p-id="5174" xmlns:xlink="http://www.w3.org/1999/xlink" width="200" height="200"><defs><style type="text/css"></style></defs><path d="M512 1024c-97.257143 0-173.828571-3.2-227.771429-9.371429-28-3.2-49.257143-7.314286-65.028571-12.228571-11.085714-3.542857-20-7.771429-27.2-12.914286-15.885714-11.2-24.914286-28-24.914286-46.171428 0-7.771429 2.4-34.285714 33.142857-47.657143 5.371429-2.4 11.771429-4.342857 19.885715-6.285714 10.857143-2.514286 25.6-5.142857 45.028571-7.771429 33.714286-4.685714 75.314286-8.914286 112-12.685714 16-1.6 34.285714-3.542857 48.228572-5.142857 2.742857-16 5.257143-42.971429 4.571428-76.8-1.142857-53.028571-9.028571-80-12.685714-87.771429-7.771429-4.914286-29.257143-13.142857-45.371429-19.2-76-29.028571-203.2-77.714286-241.028571-212.914286C109.828571 392.114286 117.714286 298.742857 154.285714 189.485714c24.342857-72.685714 53.371429-127.657143 58.742857-137.371428 12-24 40.342857-32.685714 69.371429-38.285715C329.6 4.685714 406.857143 0 512 0s182.4 4.685714 229.485714 13.828571c29.028571 5.714286 57.371429 14.285714 69.371429 38.285715 5.257143 9.828571 34.4 64.8 58.742857 137.371428 36.571429 109.257143 44.457143 202.628571 23.428571 277.6C855.085714 602.285714 727.885714 650.971429 652 680c-16 6.171429-37.6 14.4-45.371429 19.2-3.657143 7.657143-11.542857 34.628571-12.685714 87.771429-0.685714 33.828571 1.828571 60.8 4.571429 76.8 13.828571 1.6 32.228571 3.428571 48.228571 5.142857 36.8 3.771429 78.4 8 112 12.685714 19.428571 2.742857 34.171429 5.257143 45.028572 7.771429 8.114286 1.942857 14.514286 3.885714 19.885714 6.285714 30.742857 13.371429 33.142857 39.771429 33.142857 47.657143 0 18.057143-9.142857 34.857143-24.914286 46.171428-7.314286 5.142857-16.114286 9.371429-27.2 12.914286-15.771429 5.028571-37.028571 9.028571-65.028571 12.228571-53.828571 6.171429-130.4 9.371429-227.657143 9.371429z" fill="#25467A" p-id="5175"></path><path d="M846.857143 454.285714c44.228571-158.057143-78.857143-380.342857-78.857143-380.342857S758.057143 48 512 48 256 73.942857 256 73.942857s-123.085714 222.285714-78.857143 380.342857c44.342857 158.057143 241.257143 175.314286 275.771429 212.342857 34.514286 37.028571 30.857143 225.714286 6.171428 240.457143-9.6 5.828571-244 21.257143-244 36.228572 0 19.314286 100.228571 32.685714 296.914286 32.685714s296.914286-13.371429 296.914286-32.685714c0-14.971429-234.4-30.4-244-36.228572-24.571429-14.857143-28.228571-203.428571 6.171428-240.457143 34.514286-37.028571 231.428571-54.285714 275.771429-212.342857z" fill="#941717" p-id="5176"></path><path d="M512 964.571429c-181.828571 0-248.8-11.2-273.028571-18.4 8.8-1.828571 22.285714-4.114286 43.085714-6.857143 31.085714-4.114286 68.342857-7.885714 101.257143-11.2 66.742857-6.857143 76.685714-8.228571 81.714285-11.2 6.171429-3.657143 14.971429-13.142857 20.457143-52.114286 7.885714-56.114286 6.514286-172.914286-24.228571-205.942857-11.885714-12.685714-36.685714-22.171429-68-34.171429-35.657143-13.6-80.114286-30.628571-118.971429-57.6-44.8-31.085714-72.914286-69.028571-86.057143-115.771428-9.714286-34.514286-11.771429-75.428571-6.057142-121.371429 4.571429-37.257143 14.171429-77.942857 28.571428-120.914286 22.4-67.428571 49.828571-119.542857 54.514286-128.228571C270.285714 77.6 307.885714 59.428571 512 59.428571c204.114286 0 241.714286 18.171429 246.742857 21.371429 4.685714 8.685714 32.114286 60.8 54.628572 128.114286 14.4 42.971429 24 83.657143 28.571428 120.914285 5.6 46.057143 3.657143 86.857143-6.057143 121.371429-13.142857 46.857143-41.257143 84.685714-86.057143 115.771429-38.857143 26.971429-83.314286 44-118.971428 57.6-31.428571 12-56.114286 21.485714-68 34.171428-30.742857 33.028571-32.114286 149.828571-24.228572 205.942857 5.485714 38.971429 14.285714 48.457143 20.457143 52.114286 5.028571 2.971429 14.857143 4.342857 81.714286 11.2 32.914286 3.314286 70.171429 7.2 101.257143 11.2 20.8 2.742857 34.285714 5.028571 43.085714 6.857143-24.342857 7.314286-91.314286 18.514286-273.142857 18.514286z" fill="#FFFFFF" p-id="5177"></path><path d="M460.914286 658.971429c-11.771429-12.685714-36.571429-22.171429-68-34.171429-35.771429-13.714286-80.342857-30.742857-119.314286-57.828571-44.914286-31.2-73.142857-69.257143-86.4-116.228572-22.171429-78.971429 0-175.657143 22.514286-242.971428h604.342857c22.514286 67.2 44.685714 164 22.514286 242.971428-13.142857 46.971429-41.371429 85.028571-86.4 116.228572-38.971429 27.085714-83.542857 44.114286-119.314286 57.828571-31.428571 12-56.228571 21.485714-68 34.171429-16.228571 17.714286-85.485714 17.714286-101.942857 0z" fill="#E53935" p-id="5178"></path><path d="M836.685714 450.857143c-13.142857 46.971429-41.371429 85.028571-86.4 116.228571-0.914286 0.685714-1.942857 1.257143-2.857143 1.942857 28.114286-25.942857 51.314286-59.2 63.428572-102.971428 22.4-81.828571 1.942857-180.571429-23.657143-258.057143h26.971429c22.514286 67.085714 44.685714 163.885714 22.514285 242.857143zM187.314286 450.857143c13.142857 46.971429 41.371429 85.028571 86.4 116.228571 0.914286 0.685714 1.942857 1.257143 2.857143 1.942857-28.114286-25.942857-51.314286-59.2-63.428572-102.971428-22.4-81.828571-1.942857-180.571429 23.657143-258.057143h-26.971429c-22.514286 67.085714-44.685714 163.885714-22.514285 242.857143z" fill="#FF8A80" p-id="5179"></path><path d="M209.828571 207.885714a302.171429 12.228571 0 1 0 604.342858 0 302.171429 12.228571 0 1 0-604.342858 0Z" fill="#941717" p-id="5180"></path><path d="M583.428571 644.8c-8.685714 4.457143-15.657143 9.142857-20.457142 14.285714-6.971429 7.542857-12.228571 18.514286-16.114286 30.971429-10.742857-3.542857-22.514286-5.828571-34.742857-5.828572-12.342857 0-24.114286 2.285714-34.742857 5.828572-3.885714-12.342857-9.142857-23.428571-16.114286-30.971429-4.8-5.142857-11.771429-9.828571-20.457143-14.285714 0 0 22.971429 12.685714 71.428571 12.685714s71.2-12.685714 71.2-12.685714z" fill="#801414" p-id="5181"></path><path d="M764.457143 84.571429c0 13.714286-113.142857 24.914286-252.571429 24.914285-139.542857 0-252.571429-11.2-252.571428-24.914285 0-3.542857 7.657143-6.971429 21.485714-10.057143-5.028571 1.714286-7.771429 3.542857-7.771429 5.371428 0 11.771429 106.971429 21.257143 238.857143 21.257143s238.857143-9.485714 238.857143-21.257143c0-1.828571-2.742857-3.657143-7.771428-5.371428 13.828571 3.085714 21.485714 6.4 21.485714 10.057143z" fill="#A62121" p-id="5182"></path><path d="M512 531.885714c-35.314286 0-64-28.685714-64-64 0-7.085714 5.714286-12.8 12.8-12.8s12.8 5.714286 12.8 12.8c0 21.257143 17.142857 38.4 38.4 38.4s38.4-17.142857 38.4-38.4c0-7.085714 5.714286-12.8 12.8-12.8s12.8 5.714286 12.8 12.8c0 35.314286-28.685714 64-64 64zM345.6 365.485714c0 21.257143 17.142857 38.4 38.4 38.4s38.4-17.142857 38.4-38.4-17.142857-38.4-38.4-38.4c-21.142857 0-38.4 17.142857-38.4 38.4zM601.6 365.485714c0 21.257143 17.142857 38.4 38.4 38.4s38.4-17.142857 38.4-38.4-17.142857-38.4-38.4-38.4c-21.142857 0-38.4 17.142857-38.4 38.4z" fill="#25467A" p-id="5183"></path><path d="M332.8 429.485714h-51.2c-14.171429 0-25.6 11.428571-25.6 25.6s11.428571 25.6 25.6 25.6h51.2c14.171429 0 25.6-11.428571 25.6-25.6s-11.428571-25.6-25.6-25.6z m409.6 0h-51.2c-14.171429 0-25.6 11.428571-25.6 25.6s11.428571 25.6 25.6 25.6h51.2c14.171429 0 25.6-11.428571 25.6-25.6s-11.428571-25.6-25.6-25.6z" fill="#FFCDD2" p-id="5184"></path><path d="M602.057143 932.228571c0 9.828571-39.657143 17.828571-88.457143 17.828572-48.914286 0-88.457143-8-88.457143-17.828572 0-3.314286 4.571429-6.514286 12.571429-9.142857-0.114286 0.342857-0.114286 0.685714-0.114286 1.028572 0 8.457143 34.057143 15.314286 76 15.314285s76-6.857143 76-15.314285c0-0.342857 0-0.685714-0.114286-1.028572 8 2.742857 12.571429 5.828571 12.571429 9.142857z" fill="#801414" p-id="5185"></path></svg>