<?xml version="1.0" standalone="no"?><!DOCTYPE svg PUBLIC "-//W3C//DTD SVG 1.1//EN" "http://www.w3.org/Graphics/SVG/1.1/DTD/svg11.dtd"><svg t="1654585223255" class="icon" viewBox="0 0 1024 1024" version="1.1" xmlns="http://www.w3.org/2000/svg" p-id="4480" xmlns:xlink="http://www.w3.org/1999/xlink" width="200" height="200"><defs><style type="text/css"></style></defs><path d="M700 1024c-60.457143 0-121.028571-18.971429-175.085714-54.971429-49.828571-33.142857-91.885714-79.771429-118.514286-131.428571-14.057143-27.314286-17.257143-59.428571-9.142857-92.8 6.628571-27.314286 20.571429-55.314286 41.485714-83.314286 38.742857-52 99.314286-100.8 170.628572-137.485714 74.057143-38.057143 151.314286-59.085714 217.714285-59.085714 101.142857 0 140.8 47.657143 155.428572 76 20 38.857143 41.485714 101.028571 41.485714 158.971428C1024 878.971429 878.971429 1024 700 1024z" fill="#25467A" p-id="4481"></path><path d="M462.971429 1024c-87.657143 0-171.542857-22.628571-243.428572-65.714286-5.828571-0.457143-12.457143-0.685714-19.2-1.028571-33.028571-1.371429-74.057143-3.085714-102.171428-30.742857l-0.342858-0.342857-0.342857-0.342858c-27.657143-28.228571-29.371429-69.257143-30.742857-102.171428-0.228571-6.742857-0.571429-13.371429-1.028571-19.2C10.285714 711.885714-11.085714 599.085714 5.485714 485.714286c8.457143-57.942857 26.4-114.4 53.371429-167.885715 27.771429-55.085714 64.342857-105.6 108.914286-150.057142C221.942857 113.6 284.571429 71.428571 353.714286 42.4 420.8 14.285714 490.514286 0 561.028571 0c87.542857 0 171.428571 22.628571 243.314286 65.6 5.942857 0.457143 12.457143 0.685714 19.314286 0.914286 33.142857 1.257143 74.514286 2.857143 102.628571 31.2 28.342857 28.114286 29.942857 69.371429 31.2 102.628571 0.228571 6.857143 0.571429 13.371429 0.914286 19.314286 55.314286 92.571429 76.685714 205.371429 60 318.742857-8.457143 57.942857-26.4 114.4-53.371429 167.771429-27.771429 55.085714-64.342857 105.6-108.8 150.057142-54.171429 54.171429-116.8 96.457143-185.942857 125.371429-67.085714 28.114286-136.8 42.4-207.314285 42.4z" fill="#25467A" p-id="4482"></path><path d="M822.285714 822.285714c166.971429-166.971429 199.542857-413.028571 89.485715-586.742857-5.028571-34.742857 1.828571-82.857143-19.542858-103.885714-21.028571-21.371429-69.142857-14.628571-103.885714-19.542857-173.6-109.942857-419.657143-77.485714-586.628571 89.6C34.628571 368.685714 2.171429 614.857143 112.228571 788.571429c5.028571 34.4-1.371429 82.4 19.542858 103.771428 21.371429 20.914286 69.257143 14.514286 103.771428 19.542857 173.6 109.942857 419.771429 77.485714 586.742857-89.6z" fill="#63C452" p-id="4483"></path><path d="M822.285714 822.285714C655.314286 989.371429 409.142857 1021.828571 235.428571 911.771429c-34.4-5.028571-82.4 1.371429-103.771428-19.542858-20.8-21.257143-14.4-69.257143-19.428572-103.657142-11.2-17.6-20.914286-36.114286-29.142857-55.085715 86.857143 45.485714 188.571429 68.571429 298.4 62.742857C636.457143 782.742857 863.657143 617.142857 970.4 392c23.428571 146.514286-26.971429 309.257143-148.114286 430.285714z" fill="#5AB34B" p-id="4484"></path><path d="M324.278203 875.57182a26.971429 26.971429 0 1 0 47.177204-26.156133 26.971429 26.971429 0 1 0-47.177204 26.156133Z" fill="#4E9941" p-id="4485"></path><path d="M224.999298 807.569172a26.971429 26.971429 0 1 0 47.177203-26.156133 26.971429 26.971429 0 1 0-47.177203 26.156133Z" fill="#4E9941" p-id="4486"></path><path d="M368.781075 789.424037a26.971429 26.971429 0 1 0 47.177204-26.156133 26.971429 26.971429 0 1 0-47.177204 26.156133Z" fill="#4E9941" p-id="4487"></path><path d="M445.714286 491.771429c-35.314286 0-64-28.685714-64-64 0-7.085714 5.714286-12.8 12.8-12.8s12.8 5.714286 12.8 12.8c0 21.257143 17.142857 38.4 38.4 38.4s38.4-17.142857 38.4-38.4c0-7.085714 5.714286-12.8 12.8-12.8s12.8 5.714286 12.8 12.8c0 35.314286-28.685714 64-64 64zM279.314286 325.371429c0 21.257143 17.142857 38.4 38.4 38.4s38.4-17.142857 38.4-38.4-17.142857-38.4-38.4-38.4c-21.142857 0-38.4 17.142857-38.4 38.4zM535.314286 325.371429c0 21.257143 17.142857 38.4 38.4 38.4s38.4-17.142857 38.4-38.4-17.142857-38.4-38.4-38.4c-21.142857 0-38.4 17.142857-38.4 38.4z" fill="#25467A" p-id="4488"></path><path d="M266.514286 389.371429h-51.2c-14.171429 0-25.6 11.428571-25.6 25.6s11.428571 25.6 25.6 25.6h51.2c14.171429 0 25.6-11.428571 25.6-25.6s-11.428571-25.6-25.6-25.6z m409.6 0h-51.2c-14.171429 0-25.6 11.428571-25.6 25.6s11.428571 25.6 25.6 25.6h51.2c14.171429 0 25.6-11.428571 25.6-25.6s-11.428571-25.6-25.6-25.6z" fill="#C5E1A5" p-id="4489"></path><path d="M700 995.771429c-54.857143 0-110.057143-17.371429-159.428571-50.285715-45.828571-30.514286-84.685714-73.371429-109.028572-120.8-20.914286-40.571429-10.285714-92.457143 29.942857-146.285714 36.228571-48.571429 93.371429-94.514286 160.914286-129.257143 70.057143-36.114286 142.857143-56 204.8-56 63.885714 0 110.171429 21.6 130.285714 60.685714 18.514286 35.885714 38.285714 93.142857 38.285715 146.057143 0.114286 163.428571-132.342857 295.885714-295.771429 295.885715z" fill="#25467A" p-id="4490"></path><path d="M970.171429 700c0 149.142857-120.914286 270.171429-270.171429 270.171429-104.685714 0-200.8-70.171429-245.714286-157.257143l480.342857-247.314286c19.2 37.142857 35.542857 89.828571 35.542858 134.4z" fill="#5BB54C" p-id="4491"></path><path d="M454.285714 812.914286c20.457143 71.085714 147.771429 78.171429 282.971429 16.457143 135.2-61.714286 228.342857-169.371429 207.885714-240.457143-2.4-8.342857-6.285714-15.885714-10.514286-23.2-33.371429-64.8-167.885714-61.942857-300.571428 6.285714S421.028571 748.114286 454.285714 812.914286z" fill="#DCEDC8" p-id="4492"></path><path d="M719.085714 661.828571L814.857143 540.228571c2.4-3.085714 6.171429-4.914286 10.171428-4.914285 37.828571 0.457143 65.714286 10.628571 80.342858 29.257143 1.714286 2.285714 0.685714 5.6-2.285715 7.2l-178.742857 92c-4.228571 2.171429-7.428571 0.914286-5.257143-1.942858z m-63.314285-83.2c46.514286-22.285714 93.714286-36.571429 135.885714-41.485714 4.457143-0.457143 6.857143 3.885714 4.114286 7.314286l-93.028572 118.057143c-2.285714 2.857143-7.771429 4.457143-8.8 2.514285l-41.028571-79.771428c-1.257143-2.171429 0.114286-5.257143 2.857143-6.628572zM513.142857 681.142857c28.685714-32 68.457143-62.742857 114.514286-88.114286 2.057143-1.257143 4.685714-0.685714 6.057143 1.371429l41.371428 80.342857c1.028571 1.942857-3.542857 5.485714-7.2 5.6l-151.771428 7.2c-2.057143 0.228571-3.885714-1.257143-4.228572-3.314286 0-1.028571 0.342857-2.171429 1.257143-3.085714z m-43.657143 103.542857c-4.8-22.4 3.657143-50.057143 24.685715-79.771428 1.828571-2.514286 4.571429-4 7.657142-4.114286l156-7.428571c3.657143-0.114286 2.742857 3.2-1.485714 5.371428l-175.085714 90.171429c-4.914286 2.514286-10.628571 0.457143-11.771429-4.228572z m90.628572 51.085715c-37.828571-0.457143-65.6-10.628571-80.342857-29.257143-1.714286-2.171429-0.685714-5.6 2.285714-7.085715L660.8 707.428571c4.228571-2.171429 7.428571-0.914286 5.257143 1.942858L570.285714 830.742857c-2.514286 3.2-6.285714 5.028571-10.171428 5.028572z m169.142857-43.428572c-46.514286 22.285714-93.714286 36.685714-135.771429 41.485714-4.457143 0.457143-6.857143-3.885714-4.114285-7.314285L682.4 708.571429c2.285714-2.857143 7.771429-4.457143 8.8-2.514286l41.028571 79.771428c1.257143 2.285714 0 5.257143-2.971428 6.514286z m-12.114286-101.714286l151.771429-7.2c2.057143-0.228571 3.885714 1.257143 4.228571 3.314286 0.114286 1.257143-0.342857 2.4-1.142857 3.2-28.685714 32-68.457143 62.742857-114.514286 88.114286-2.057143 1.371429-4.685714 0.8-6.057143-1.257143l-41.371428-80.342857c-1.142857-2.171429 3.428571-5.714286 7.085714-5.828572z m11.657143-18.285714l175.085714-90.171428c5.028571-2.514286 10.742857-0.457143 11.771429 4.228571 4.8 22.4-3.657143 50.057143-24.685714 79.771429-1.828571 2.514286-4.571429 4-7.657143 4.114285L727.314286 677.714286c-3.657143 0.114286-2.742857-3.2 1.485714-5.371429z" fill="#ADD580" p-id="4493"></path><path d="M658.057143 933.028571m-17.714286 0a17.714286 17.714286 0 1 0 35.428572 0 17.714286 17.714286 0 1 0-35.428572 0Z" fill="#53A345" p-id="4494"></path><path d="M792.228571 920.8m-17.714285 0a17.714286 17.714286 0 1 0 35.428571 0 17.714286 17.714286 0 1 0-35.428571 0Z" fill="#53A345" p-id="4495"></path><path d="M937.371429 740.228571m-17.714286 0a17.714286 17.714286 0 1 0 35.428571 0 17.714286 17.714286 0 1 0-35.428571 0Z" fill="#53A345" p-id="4496"></path><path d="M747.085714 892.685714m-17.714285 0a17.714286 17.714286 0 1 0 35.428571 0 17.714286 17.714286 0 1 0-35.428571 0Z" fill="#53A345" p-id="4497"></path></svg>